HIERARCHY
ROOT Hips
{
	OFFSET 0.000000 89.005402 0.000000
	CHANNELS 6 Xposition Yposition Zposition Xrotation Yrotation Zrotation
	JOINT Spine
	{
		OFFSET 0.116900 10.681000 0.373400
		CHANNELS 3 Xrotation Yrotation Zrotation
		JOINT Spine1
		{
			OFFSET 0.000000 13.840401 0.053500
			CHANNELS 3 Xrotation Yrotation Zrotation
			JOINT Spine2
			{
				OFFSET 0.000000 14.712700 -0.366200
				CHANNELS 3 Xrotation Yrotation Zrotation
				JOINT Neck
				{
					OFFSET 0.000000 35.415497 -3.314200
					CHANNELS 3 Xrotation Yrotation Zrotation
					JOINT Head
					{
						OFFSET 0.000000 16.899200 1.218300
						CHANNELS 3 Xrotation Yrotation Zrotation
						JOINT HeadTop_End
						{
							OFFSET 0.000000 22.206207 2.192500
							CHANNELS 3 Xrotation Yrotation Zrotation
							End Site
							{
								OFFSET 0.000000 22.314178 0.000000
							}
						}
					}
				}
				JOINT LeftShoulder
				{
					OFFSET 12.896400 26.716293 -4.548400
					CHANNELS 3 Xrotation Yrotation Zrotation
					JOINT LeftArm
					{
						OFFSET 19.027000 -4.857010 -1.718400
						CHANNELS 3 Xrotation Yrotation Zrotation
						JOINT LeftForeArm
						{
							OFFSET 24.179897 0.000000 0.000000
							CHANNELS 3 Xrotation Yrotation Zrotation
							JOINT LeftHand
							{
								OFFSET 27.156403 0.000000 0.000000
								CHANNELS 3 Xrotation Yrotation Zrotation
								JOINT LeftHandIndex1
								{
									OFFSET 16.441200 0.000000 0.000000
									CHANNELS 3 Xrotation Yrotation Zrotation
									JOINT LeftHandIndex2
									{
										OFFSET 4.821899 0.000000 0.000000
										CHANNELS 3 Xrotation Yrotation Zrotation
										JOINT LeftHandIndex3
										{
											OFFSET 6.386497 0.000000 0.000000
											CHANNELS 3 Xrotation Yrotation Zrotation
											JOINT LeftHandIndex4
											{
												OFFSET 5.188988 0.000000 0.000000
												CHANNELS 3 Xrotation Yrotation Zrotation
												End Site
												{
													OFFSET -0.178703 5.185913 0.000177
												}
											}
										}
									}
								}
								JOINT LeftHandThumb1
								{
									OFFSET 6.534897 -5.032593 5.900300
									CHANNELS 3 Xrotation Yrotation Zrotation
									JOINT LeftHandThumb2
									{
										OFFSET 3.818176 -2.204422 2.204423
										CHANNELS 3 Xrotation Yrotation Zrotation
										JOINT LeftHandThumb3
										{
											OFFSET 3.252098 -1.877594 1.877601
											CHANNELS 3 Xrotation Yrotation Zrotation
											JOINT LeftHandThumb4
											{
												OFFSET 5.251778 -3.032120 3.032117
												CHANNELS 3 Xrotation Yrotation Zrotation
												End Site
												{
													OFFSET 0.000023 6.780014 0.000000
												}
											}
										}
									}
								}
							}
						}
					}
				}
				JOINT RightShoulder
				{
					OFFSET -12.896300 26.716293 -4.548400
					CHANNELS 3 Xrotation Yrotation Zrotation
					JOINT RightArm
					{
						OFFSET -19.027000 -4.857010 -1.718400
						CHANNELS 3 Xrotation Yrotation Zrotation
						JOINT RightForeArm
						{
							OFFSET -24.179897 0.000000 0.000000
							CHANNELS 3 Xrotation Yrotation Zrotation
							JOINT RightHand
							{
								OFFSET -27.156403 0.000000 0.000000
								CHANNELS 3 Xrotation Yrotation Zrotation
								JOINT RightHandThumb1
								{
									OFFSET -6.591202 -4.852203 5.988100
									CHANNELS 3 Xrotation Yrotation Zrotation
									JOINT RightHandThumb2
									{
										OFFSET -3.818176 -2.204422 2.204423
										CHANNELS 3 Xrotation Yrotation Zrotation
										JOINT RightHandThumb3
										{
											OFFSET -3.252098 -1.877594 1.877601
											CHANNELS 3 Xrotation Yrotation Zrotation
											JOINT RightHandThumb4
											{
												OFFSET -5.251778 -3.032120 3.032117
												CHANNELS 3 Xrotation Yrotation Zrotation
												End Site
												{
													OFFSET -0.000023 6.780014 0.000000
												}
											}
										}
									}
								}
								JOINT RightHandIndex1
								{
									OFFSET -16.029404 0.000000 0.000000
									CHANNELS 3 Xrotation Yrotation Zrotation
									JOINT RightHandIndex2
									{
										OFFSET -5.213303 0.000000 0.000000
										CHANNELS 3 Xrotation Yrotation Zrotation
										JOINT RightHandIndex3
										{
											OFFSET -6.386528 0.000000 0.000000
											CHANNELS 3 Xrotation Yrotation Zrotation
											JOINT RightHandIndex4
											{
												OFFSET -5.189026 0.000000 0.000000
												CHANNELS 3 Xrotation Yrotation Zrotation
												End Site
												{
													OFFSET 0.236702 5.183624 0.001972
												}
											}
										}
									}
								}
							}
						}
					}
				}
			}
		}
	}
	JOINT LeftUpLeg
	{
		OFFSET 14.073000 -7.904099 -1.463000
		CHANNELS 3 Xrotation Yrotation Zrotation
		JOINT LeftLeg
		{
			OFFSET -0.109806 -34.073280 4.093200
			CHANNELS 3 Xrotation Yrotation Zrotation
			JOINT LeftFoot
			{
				OFFSET 0.109806 -29.899420 -6.319000
				CHANNELS 3 Xrotation Yrotation Zrotation
				JOINT LeftToeBase
				{
					OFFSET 1.551100 -14.988700 20.535801
					CHANNELS 3 Xrotation Yrotation Zrotation
					JOINT LeftToe_End
					{
						OFFSET 0.221200 0.570800 13.248301
						CHANNELS 3 Xrotation Yrotation Zrotation
						End Site
						{
							OFFSET 0.000000 13.262435 0.000000
						}
					}
				}
			}
		}
	}
	JOINT RightUpLeg
	{
		OFFSET -13.839300 -7.904099 -1.463000
		CHANNELS 3 Xrotation Yrotation Zrotation
		JOINT RightLeg
		{
			OFFSET 0.109694 -34.073219 4.093300
			CHANNELS 3 Xrotation Yrotation Zrotation
			JOINT RightFoot
			{
				OFFSET -0.109694 -29.899384 -6.319200
				CHANNELS 3 Xrotation Yrotation Zrotation
				JOINT RightToeBase
				{
					OFFSET -1.551100 -14.988700 20.535801
					CHANNELS 3 Xrotation Yrotation Zrotation
					JOINT RightToe_End
					{
						OFFSET -0.221200 0.570900 13.248299
						CHANNELS 3 Xrotation Yrotation Zrotation
						End Site
						{
							OFFSET 0.000000 13.262440 0.000000
						}
					}
				}
			}
		}
	}
}
MOTION
Frames: 4
Frame Time: 0.033333
-0.142441 85.490631 1.767290 -4.931797 4.731282 -0.922870 2.466736 -0.244516 0.929819 4.930262 -0.278493 0.281586 4.931301 -0.259569 0.280592 3.901923 0.529551 -0.548528 -19.148476 1.516216 2.095507 0.000001 0.000000 0.000000 -0.169517 8.444195 -10.868517 -21.324610 -13.935241 -67.457393 -0.000003 -17.105876 -0.000012 23.057503 -7.842563 -16.188148 0.212504 1.700693 -14.243017 0.463338 2.487525 -21.099110 0.116743 1.265141 -10.544544 -0.000003 0.000001 -0.000000 5.020639 21.939546 6.970734 -10.935059 13.162636 4.029963 -7.803183 4.543113 3.203977 -0.000000 0.000000 0.000002 3.165184 11.434318 11.094719 -3.067117 7.990456 55.065361 -0.000005 30.218178 0.000019 31.274671 -5.359150 29.104228 -5.870689 -16.756732 -8.109256 -3.877144 -15.773518 -0.240540 -5.436230 -3.481954 -1.534670 -0.000004 0.000001 0.000002 0.727262 -3.100830 26.392706 0.105172 -1.207289 9.958085 0.026356 -0.605928 4.978495 -0.000001 0.000002 -0.000001 -5.005965 11.226265 17.226459 21.746793 -1.645802 0.067425 -11.854740 2.078783 -7.343879 -1.393171 0.000001 -0.000002 -0.000000 0.000001 -0.000000 2.606273 -8.129246 -8.472080 18.632987 0.693245 -1.467325 -15.939541 -1.842512 5.735823 -1.932272 -0.000002 0.000004 0.000000 0.000000 0.000000 
-0.148105 85.259323 2.162511 -4.425625 4.615198 -1.100482 2.142687 -0.150550 0.987432 4.281245 -0.073605 0.227542 4.281529 -0.055371 0.226714 3.266243 0.442710 -0.631081 -20.080802 0.829111 2.443691 0.000000 -0.000000 -0.000000 -0.166899 8.477919 -10.999134 -19.052191 -17.184097 -64.621595 0.000001 -17.041254 0.000004 24.192571 -12.453691 -18.393629 0.212489 1.700697 -14.243016 0.463334 2.487526 -21.099107 0.116745 1.265140 -10.544539 -0.000001 0.000003 0.000003 5.020635 21.939549 6.970748 -10.935061 13.162633 4.029964 -7.803183 4.543114 3.203982 -0.000001 0.000000 0.000003 3.167748 11.430896 11.108551 -0.546291 8.390240 54.482797 -0.000007 32.045991 0.000013 31.551174 -4.060739 32.017949 -5.870674 -16.756703 -8.109235 -3.877152 -15.773524 -0.240553 -5.436240 -3.481972 -1.534675 -0.000000 0.000000 0.000001 0.727258 -3.100834 26.392706 0.105177 -1.207291 9.958086 0.026357 -0.605929 4.978492 0.000001 -0.000001 0.000005 -5.361719 11.490198 17.917729 22.118171 -1.773553 -0.343242 -12.401389 2.158423 -7.930119 -1.058806 -0.000003 0.000001 -0.000000 -0.000001 0.000000 2.291834 -8.390830 -8.744908 19.038488 0.814043 -0.887775 -16.503919 -1.899099 5.822889 -1.835568 -0.000001 0.000001 -0.000000 0.000000 -0.000000 
-0.193318 84.992828 2.691354 -4.363318 4.732004 -1.238716 1.862984 -0.120508 1.064420 3.718777 0.029696 0.139236 3.718593 0.047770 0.138534 2.623920 0.244454 -0.484922 -26.830600 0.147061 1.737444 0.000001 0.000001 0.000000 -0.163593 8.422080 -10.903633 -15.334137 -21.413741 -60.145457 0.000006 -15.349102 -0.000002 24.898032 -21.893572 -19.022097 0.212498 1.700711 -14.242996 0.463340 2.487524 -21.099110 0.116747 1.265141 -10.544541 -0.000000 -0.000001 -0.000000 5.020643 21.939563 6.970764 -10.935059 13.162631 4.029963 -7.803183 4.543113 3.203978 -0.000001 -0.000001 -0.000000 3.164058 11.408308 11.112255 3.535814 9.530084 52.921842 -0.000009 35.310189 0.000023 31.126323 -1.434388 35.603867 -5.870676 -16.756708 -8.109236 -3.877156 -15.773528 -0.240559 -5.436213 -3.481947 -1.534642 -0.000003 0.000000 -0.000001 0.727262 -3.100850 26.392718 0.105173 -1.207290 9.958089 0.026353 -0.605926 4.978492 0.000000 -0.000000 0.000001 -5.340147 12.027891 18.827432 22.642840 -1.918600 -0.849714 -13.046792 2.251352 -8.431797 -0.782408 -0.000009 0.000002 -0.000000 0.000001 -0.000000 2.697107 -8.680372 -8.838164 19.496900 0.854176 -0.464585 -17.389313 -1.947996 5.848559 -1.805758 -0.000000 0.000003 0.000000 0.000000 0.000000 
-0.278864 84.746468 3.286193 -4.979294 5.190867 -1.312493 1.696216 -0.198695 1.172700 3.378265 -0.050072 0.073613 3.378493 -0.031280 0.072934 1.809898 -0.054987 -0.203630 -39.123016 -0.199251 -0.253109 -0.000001 -0.000000 -0.000000 -0.161383 8.303446 -10.624436 -10.626322 -25.776994 -54.109691 -0.000011 -12.827703 -0.000028 23.341675 -32.966717 -17.203404 0.212499 1.700715 -14.242995 0.463343 2.487524 -21.099112 0.116742 1.265139 -10.544543 -0.000002 -0.000005 -0.000003 5.020648 21.939578 6.970778 -10.935060 13.162631 4.029960 -7.803185 4.543116 3.203979 -0.000002 0.000002 0.000000 3.102477 11.221504 11.008770 8.667585 11.246000 50.307420 -0.000005 39.775750 0.000001 28.451040 0.769407 37.727021 -5.870689 -16.756717 -8.109235 -3.877158 -15.773524 -0.240565 -5.436218 -3.481963 -1.534665 -0.000002 0.000001 0.000000 0.727256 -3.100841 26.392703 0.105175 -1.207290 9.958085 0.026354 -0.605929 4.978495 -0.000001 -0.000000 0.000001 -4.943785 12.874050 19.889562 23.523592 -2.016194 -1.417189 -13.759063 2.318510 -8.442928 -0.794911 0.000003 -0.000002 -0.000000 0.000001 0.000000 3.972115 -9.034818 -8.602014 20.169040 0.586158 -0.281269 -18.662191 -1.830492 5.399926 -2.170268 -0.000001 -0.000003 -0.000000 -0.000000 -0.000000 
